<svg data-v-fde0c5aa="" xmlns="http://www.w3.org/2000/svg" viewBox="0 0 300 300" class="font"><!----><defs data-v-fde0c5aa=""><!----></defs><rect data-v-fde0c5aa="" fill="#EAEDF9" x="0" y="0" width="300px" height="300px" class="logo-background-square"></rect><defs data-v-fde0c5aa=""><linearGradient data-v-fde0c5aa="" gradientTransform="rotate(25)" id="acd04f15-2d73-4af3-bcf5-4e54b461be57" x1="0%" y1="0%" x2="100%" y2="0%"><stop data-v-fde0c5aa="" offset="0%" stop-color="#395ECA" stop-opacity="1"></stop><stop data-v-fde0c5aa="" offset="100%" stop-color="#848BD8" stop-opacity="1"></stop></linearGradient></defs><g data-v-fde0c5aa="" id="75917c6e-eb69-4b9a-bded-1c3151491fb5" fill="url(#acd04f15-2d73-4af3-bcf5-4e54b461be57)" transform="matrix(2.9000790697328265,0,0,2.9000790697328265,37.563933484623846,123.94278917124822)"><path d="M2.89 12.67L0.84 12.67L0.84 2.42L1.52 2.42L5.97 7.48L10.42 2.42L11.10 2.42L11.10 12.67L9.05 12.67L9.04 6.73L5.97 10.14L2.89 6.73L2.89 12.67ZM13.87 7.82L13.12 6.66L13.12 6.66Q14.42 5.84 16.13 5.84L16.13 5.84L16.13 5.84Q17.36 5.84 18.07 6.52L18.07 6.52L18.07 6.52Q18.79 7.21 18.79 8.57L18.79 8.57L18.79 12.67L16.88 12.67L16.88 12.13L16.88 12.13Q16.04 12.67 15.37 12.67L15.37 12.67L15.37 12.67Q14.01 12.67 13.32 12.09L13.32 12.09L13.32 12.09Q12.64 11.51 12.64 10.49L12.64 10.49L12.64 10.49Q12.64 9.53 13.29 8.78L13.29 8.78L13.29 8.78Q13.93 8.03 15.37 8.03L15.37 8.03L15.37 8.03Q16.04 8.03 16.88 8.44L16.88 8.44L16.88 8.23L16.88 8.23Q16.86 7.48 15.78 7.41L15.78 7.41L15.78 7.41Q14.55 7.41 13.87 7.82L13.87 7.82ZM16.88 10.62L16.88 10.62L16.88 9.85L16.88 9.85Q16.60 9.32 15.58 9.32L15.58 9.32L15.58 9.32Q14.35 9.46 14.28 10.28L14.28 10.28L14.28 10.28Q14.35 11.09 15.58 11.16L15.58 11.16L15.58 11.16Q16.60 11.16 16.88 10.62ZM22.87 5.80L22.87 5.80Q23.83 5.80 24.36 6.03L24.36 6.03L24.36 6.03Q24.90 6.26 25.36 6.72L25.36 6.72L24.29 7.92L24.29 7.92Q23.83 7.37 23.13 7.37L23.13 7.37L23.13 7.37Q22.44 7.37 22.21 7.63L22.21 7.63L22.21 7.63Q21.98 7.88 22.21 8.09L22.21 8.09L22.21 8.09Q22.44 8.30 23.13 8.44L23.13 8.44L23.13 8.44Q24.15 8.53 24.80 9.02L24.80 9.02L24.80 9.02Q25.45 9.50 25.45 10.71L25.45 10.71L25.45 10.71Q25.45 11.68 24.68 12.21L24.68 12.21L24.68 12.21Q23.92 12.74 22.90 12.74L22.90 12.74L22.90 12.74Q21.93 12.74 21.28 12.47L21.28 12.47L21.28 12.47Q20.64 12.19 20.17 11.72L20.17 11.72L21.23 10.53L21.23 10.53Q21.70 11.08 22.67 11.17L22.67 11.17L22.67 11.17Q23.46 11.17 23.69 10.91L23.69 10.91L23.69 10.91Q23.92 10.66 23.76 10.40L23.76 10.40L23.76 10.40Q23.60 10.14 22.67 10.06L22.67 10.06L22.67 10.06Q21.84 9.96 21.15 9.54L21.15 9.54L21.15 9.54Q20.45 9.13 20.45 7.97L20.45 7.97L20.45 7.97Q20.45 6.91 21.24 6.35L21.24 6.35L21.24 6.35Q22.03 5.80 22.87 5.80L22.87 5.80ZM31.06 12.35L31.06 12.35Q30.57 12.67 29.93 12.67L29.93 12.67L29.93 12.67Q28.77 12.67 28.09 12.02L28.09 12.02L28.09 12.02Q27.41 11.38 27.41 10.35L27.41 10.35L27.41 7.39L26.38 7.39L26.38 5.84L27.41 5.84L27.41 3.99L29.33 3.79L29.33 5.84L30.35 5.84L30.35 7.39L29.33 7.39L29.33 10.08L29.33 10.08Q29.33 10.62 29.56 10.85L29.56 10.85L29.56 10.85Q29.78 11.07 30.15 11.07L30.15 11.07L30.15 11.07Q30.26 11.07 30.66 10.98L30.66 10.98L31.06 12.35ZM31.86 9.26L31.86 9.26L31.86 9.26Q31.86 7.75 32.82 6.79L32.82 6.79L32.82 6.79Q33.78 5.84 35.28 5.84L35.28 5.84L35.28 5.84Q36.78 5.84 37.67 6.79L37.67 6.79L37.67 6.79Q38.56 7.75 38.56 9.26L38.56 9.26L38.56 9.94L33.84 9.94L33.84 9.94Q33.91 10.49 34.32 10.79L34.32 10.79L34.32 10.79Q34.73 11.10 35.28 11.10L35.28 11.10L35.28 11.10Q36.24 11.10 36.99 10.55L36.99 10.55L38.08 11.65L38.08 11.65Q37.33 12.67 35.28 12.67L35.28 12.67L35.28 12.67Q33.78 12.67 32.82 11.72L32.82 11.72L32.82 11.72Q31.86 10.76 31.86 9.26ZM36.65 8.57L36.65 8.57Q36.65 8.03 36.24 7.72L36.24 7.72L36.24 7.72Q35.83 7.41 35.28 7.41L35.28 7.41L35.28 7.41Q34.73 7.41 34.32 7.72L34.32 7.72L34.32 7.72Q33.91 8.03 33.91 8.57L33.91 8.57L36.65 8.57ZM41.83 5.83L41.83 6.59L41.83 6.59Q42.56 5.84 43.61 5.84L43.61 5.84L43.61 5.84Q43.95 5.84 44.25 5.89L44.25 5.89L43.95 7.78L43.95 7.78Q43.61 7.48 42.99 7.46L42.99 7.46L42.99 7.46Q42.29 7.51 41.83 8.47L41.83 8.47L41.83 12.67L39.92 12.67L39.92 6.04L41.83 5.83ZM49 2.42L49 2.42Q50.43 2.42 51.21 2.76L51.21 2.76L51.21 2.76Q52.00 3.10 52.68 3.79L52.68 3.79L51.32 5.15L51.32 5.15Q50.63 4.33 49.40 4.33L49.40 4.33L49.40 4.33Q48.17 4.33 47.83 4.92L47.83 4.92L47.83 4.92Q47.49 5.50 47.83 5.91L47.83 5.91L47.83 5.91Q48.17 6.32 49.40 6.52L49.40 6.52L49.40 6.52Q50.70 6.66 51.76 7.38L51.76 7.38L51.76 7.38Q52.82 8.09 52.82 9.67L52.82 9.67L52.82 9.67Q52.82 10.90 51.69 11.79L51.69 11.79L51.69 11.79Q50.56 12.67 49.05 12.67L49.05 12.67L49.05 12.67Q47.63 12.67 46.67 12.26L46.67 12.26L46.67 12.26Q45.71 11.85 45.03 11.17L45.03 11.17L46.40 9.80L46.40 9.80Q47.08 10.62 48.72 10.76L48.72 10.76L48.72 10.76Q50.09 10.76 50.43 10.18L50.43 10.18L50.43 10.18Q50.76 9.60 50.43 9.02L50.43 9.02L50.43 9.02Q50.09 8.44 48.72 8.30L48.72 8.30L48.72 8.30Q47.49 8.16 46.46 7.55L46.46 7.55L46.46 7.55Q45.44 6.93 45.44 5.43L45.44 5.43L45.44 5.43Q45.44 4.07 46.60 3.24L46.60 3.24L46.60 3.24Q47.77 2.42 49 2.42L49 2.42ZM56.41 8.05L56.41 8.05L56.41 12.67L54.50 12.67L54.50 2.42L56.41 2.42L56.41 6.45L56.41 6.45Q57.10 5.84 58.05 5.84L58.05 5.84L58.05 5.84Q59.35 5.84 60.03 6.62L60.03 6.62L60.03 6.62Q60.72 7.41 60.72 8.44L60.72 8.44L60.72 12.67L58.80 12.67L58.80 8.91L58.80 8.91Q58.80 8.23 58.46 7.85L58.46 7.85L58.46 7.85Q58.12 7.48 57.43 7.46L57.43 7.46L57.43 7.46Q56.83 7.50 56.41 8.05ZM65.11 12.74L65.11 12.74Q63.62 12.74 62.62 11.74L62.62 11.74L62.62 11.74Q61.62 10.74 61.62 9.26L61.62 9.26L61.62 9.26Q61.62 7.77 62.62 6.77L62.62 6.77L62.62 6.77Q63.62 5.77 65.11 5.77L65.11 5.77L65.11 5.77Q66.60 5.77 67.59 6.77L67.59 6.77L67.59 6.77Q68.59 7.77 68.59 9.26L68.59 9.26L68.59 9.26Q68.59 10.75 67.59 11.74L67.59 11.74L67.59 11.74Q66.60 12.74 65.11 12.74L65.11 12.74ZM65.10 11.09L65.10 11.09L65.10 11.09Q65.88 11.09 66.36 10.56L66.36 10.56L66.36 10.56Q66.85 10.04 66.85 9.26L66.85 9.26L66.85 9.26Q66.85 8.48 66.36 7.96L66.36 7.96L66.36 7.96Q65.88 7.43 65.09 7.43L65.09 7.43L65.09 7.43Q64.32 7.43 63.83 7.96L63.83 7.96L63.83 7.96Q63.35 8.48 63.35 9.26L63.35 9.26L63.35 9.26Q63.35 10.04 63.83 10.56L63.83 10.56L63.83 10.56Q64.32 11.09 65.10 11.09ZM71.78 15.55L69.86 15.54L69.86 6.04L71.78 5.83L71.78 6.38L71.78 6.38Q72.54 5.83 73.28 5.83L73.28 5.83L73.28 5.83Q74.85 5.83 75.78 6.86L75.78 6.86L75.78 6.86Q76.70 7.88 76.70 9.25L76.70 9.25L76.70 9.25Q76.70 10.62 75.78 11.64L75.78 11.64L75.78 11.64Q74.85 12.67 73.28 12.67L73.28 12.67L73.28 12.67Q72.26 12.60 71.78 12.11L71.78 12.11L71.78 15.55ZM71.78 8.63L71.78 8.63L71.78 9.74L71.78 9.74Q71.91 10.89 73.21 11.09L73.21 11.09L73.21 11.09Q74.85 10.96 75.06 9.39L75.06 9.39L75.06 9.39Q74.99 7.47 73.21 7.40L73.21 7.40L73.21 7.40Q71.91 7.61 71.78 8.63Z"></path></g><!----><!----></svg>